<svg xmlns="http://www.w3.org/2000/svg" xmlns:xlink="http://www.w3.org/1999/xlink" width="1386" zoomAndPan="magnify" viewBox="0 0 1039.5 1119.749967" height="1493" preserveAspectRatio="xMidYMid meet" version="1.0"><defs><clipPath id="a744610a7e"><path d="M 381.160156 361 L 749.730469 361 L 749.730469 750 L 381.160156 750 Z M 381.160156 361 " clip-rule="nonzero"/></clipPath><clipPath id="4ed294506c"><path d="M 749.175781 509.914062 L 725.554688 590.585938 C 689.183594 738.003906 561.996094 748.777344 561.996094 748.777344 C 430.597656 758.722656 381.921875 674.335938 381.921875 674.335938 C 409.089844 712.347656 457.605469 739.914062 503.523438 747.707031 C 512.757812 749.277344 522.152344 749.019531 531.417969 749.796875 L 577.039062 438.71875 C 576.675781 437.398438 572.859375 436.4375 571.480469 436.019531 C 558.1875 432.082031 544.34375 429.261719 530.898438 425.804688 C 523.234375 423.824219 515.605469 421.503906 507.941406 419.457031 C 506.75 419.175781 506.160156 420.144531 505.679688 421.066406 L 464.273438 554.101562 C 464.292969 563.488281 463.480469 572.933594 463.171875 582.257812 C 462.574219 600.550781 462.761719 618.859375 462.703125 637.203125 C 462.664062 651.65625 461.453125 666.726562 464.453125 681.082031 C 465.75 687.316406 470.007812 691.277344 465.25 698.242188 C 461.78125 703.320312 451.097656 704.050781 446.300781 700.769531 C 436.675781 694.195312 444.082031 678.210938 446.121094 669.367188 C 456.234375 625.585938 452.257812 579.199219 451.886719 534.582031 C 451.578125 496.808594 453.027344 457.046875 450.378906 419.617188 C 449.96875 413.839844 449.859375 408.03125 449.257812 402.265625 C 446.929688 400.027344 443.761719 399.535156 441.171875 397.527344 C 430.007812 388.863281 449.757812 381.636719 453.714844 377.308594 C 457.292969 373.390625 459.042969 366.382812 460.691406 361.453125 L 462.371094 361.414062 L 486.980469 371.730469 C 489.03125 372.648438 488.46875 374.839844 489.109375 376.265625 C 493.617188 386.324219 505.09375 390.980469 514.738281 394.769531 L 695.898438 445.515625 C 698.320312 447.113281 697.867188 456.277344 698.1875 459.128906 C 699.226562 468.285156 700.597656 477.429688 701.488281 486.613281 C 702.515625 489.78125 709.375 487.445312 709.941406 491.492188 C 710.902344 498.328125 709.804688 508.292969 709.964844 515.589844 C 709.992188 516.808594 710.492188 517.929688 710.523438 519.148438 C 710.882812 534.542969 710.554688 550.015625 711.523438 565.347656 C 711.632812 567.15625 711.28125 569.316406 711.523438 571.003906 C 711.824219 573.09375 721.078125 573.054688 721.675781 571.824219 C 723.136719 568.785156 727.433594 562.859375 729.003906 559.230469 C 747.585938 516.128906 741.339844 445.953125 732.441406 396.15625 Z M 496.035156 418.855469 L 469.890625 422.214844 L 468.9375 423.316406 L 458.066406 543.535156 L 460.792969 538.320312 C 471.039062 500.257812 484.34375 463.003906 494.746094 425.015625 C 495.304688 422.996094 496.125 420.996094 496.035156 418.855469 Z M 686.785156 481.335938 C 688.542969 479.617188 686.664062 468.414062 683.6875 466.964844 L 608.523438 446.175781 L 606.285156 446.34375 C 605.421875 449.0625 604.953125 452.132812 605.363281 454.980469 C 605.773438 457.796875 610.121094 462.078125 611.902344 464.863281 C 632.191406 496.628906 649.664062 532.0625 670.59375 563.1875 C 672.292969 565.714844 674.359375 567.894531 677.417969 565.105469 C 679.847656 562.886719 678.660156 560.097656 678.667969 557.671875 C 678.789062 533.050781 678.570312 508.433594 678.757812 483.824219 Z M 628.414062 719.023438 C 628.992188 719.101562 629.410156 719.011719 629.941406 718.753906 C 632.582031 717.433594 639.746094 711.277344 642.265625 709.015625 C 657.046875 695.824219 670.332031 678.253906 679.808594 660.871094 C 681.378906 657.992188 689.632812 641.789062 689.375 639.859375 L 601.476562 478.898438 C 600.554688 479.527344 600.675781 480.207031 600.6875 481.175781 C 600.804688 488.082031 603.375 497.148438 603.773438 504.296875 Z M 578.894531 568.164062 C 582.523438 568.625 587.863281 568.164062 591.71875 568.164062 C 591.871094 568.164062 592.917969 567.644531 593.019531 567.304688 C 592.878906 558.558594 591.570312 549.914062 590.960938 541.226562 C 589.980469 527.355469 588.972656 513.53125 587.882812 499.65625 C 587.402344 493.632812 587.972656 487.355469 586.332031 481.457031 C 585.125 481.976562 584.945312 484.144531 584.804688 485.304688 C 582.382812 504.796875 581.433594 524.765625 579.65625 544.308594 C 578.964844 551.972656 577.945312 559.710938 577.085938 567.375 C 577.085938 567.535156 578.675781 568.136719 578.894531 568.164062 Z M 576.328125 585.617188 L 593.777344 585.617188 C 595.097656 585.617188 594.050781 582.917969 594.039062 582.269531 C 593.929688 578.660156 594.238281 574.960938 593.039062 571.464844 L 577.066406 571.472656 L 575.589844 584.378906 C 575.496094 584.828125 575.996094 585.515625 576.328125 585.617188 Z M 595.566406 603.566406 L 594.957031 592.125 C 594.457031 590.746094 593.488281 590.835938 592.269531 590.714844 C 590.402344 590.523438 576.21875 590.484375 575.527344 590.972656 C 573.957031 594.921875 574.609375 599.398438 574.019531 603.566406 Z M 597.058594 623.019531 C 597.578125 622.398438 596.457031 610.574219 595.609375 608.925781 C 594.777344 608.324219 577.308594 608.414062 575.277344 608.675781 C 574.457031 608.785156 573.667969 608.875 573.25 609.726562 C 572.28125 611.714844 573.289062 619.082031 571.960938 621.789062 C 571.949219 622.429688 572.308594 622.699219 572.78125 623.027344 C 574.058594 623.910156 596.269531 623.9375 597.058594 623.019531 Z M 570.429688 641.03125 L 597.878906 641.03125 C 598.136719 641.03125 598.726562 640.179688 598.667969 639.75 L 597.148438 628.425781 L 571.941406 628.425781 Z M 569.660156 661.039062 L 598.398438 661.039062 C 598.578125 661.039062 599.226562 660.511719 599.597656 660.441406 L 598.6875 646.378906 L 571.691406 646.128906 L 570.152344 646.648438 L 568.371094 659.230469 C 568.390625 659.8125 569.25 660.921875 569.660156 661.039062 Z M 566.84375 678.480469 L 600.445312 678.480469 C 602.144531 677.082031 600.777344 674.84375 600.707031 673.09375 C 600.636719 671.285156 601.335938 666.71875 599.675781 665.910156 C 590.492188 666.136719 579.675781 664.738281 570.660156 665.628906 C 569.492188 665.738281 568.382812 665.667969 567.972656 667.046875 C 567.640625 668.15625 566.433594 678.074219 566.84375 678.480469 Z M 566.074219 698.492188 L 601.476562 698.492188 C 603.496094 698.492188 602.253906 694.453125 602.246094 693.613281 C 602.183594 690.816406 603.292969 683.988281 599.964844 683.589844 L 566.800781 683.839844 C 566.324219 684.1875 566.023438 686.707031 565.882812 687.539062 C 565.484375 689.964844 564.882812 694.496094 564.914062 696.824219 C 564.921875 697.433594 565.644531 698.371094 566.074219 698.492188 Z M 603.195312 703.699219 L 565.664062 703.21875 C 563.855469 703.878906 562.964844 714.125 563.304688 715.105469 C 563.664062 716.132812 566.523438 716.375 567.59375 716.472656 C 578.644531 717.433594 591.179688 715.8125 602.386719 716.34375 L 604.203125 715.125 Z M 604.265625 721.101562 L 563.214844 721.300781 L 560.386719 746.238281 C 561.066406 747.160156 565.28125 746.390625 566.53125 746.167969 C 576.855469 744.359375 587.503906 740.664062 597.246094 736.855469 C 600.027344 735.773438 602.816406 733.777344 605.832031 733.894531 Z M 540.664062 749.296875 C 539.484375 749.597656 536.726562 748.617188 536.058594 749.796875 C 537.238281 749.496094 539.957031 750.476562 540.664062 749.296875 Z M 540.664062 749.296875 " clip-rule="nonzero"/></clipPath><clipPath id="bd163ca0df"><path d="M 0.894531 0.410156 L 368.398438 0.410156 L 368.398438 389 L 0.894531 389 Z M 0.894531 0.410156 " clip-rule="nonzero"/></clipPath><clipPath id="daeeb728f4"><path d="M 368.175781 148.914062 L 344.554688 229.585938 C 308.183594 377.003906 180.996094 387.777344 180.996094 387.777344 C 49.597656 397.722656 0.921875 313.335938 0.921875 313.335938 C 28.089844 351.347656 76.605469 378.914062 122.523438 386.707031 C 131.757812 388.277344 141.152344 388.019531 150.417969 388.796875 L 196.039062 77.71875 C 195.675781 76.398438 191.859375 75.4375 190.480469 75.019531 C 177.1875 71.082031 163.34375 68.261719 149.898438 64.804688 C 142.234375 62.824219 134.605469 60.503906 126.941406 58.457031 C 125.75 58.175781 125.160156 59.144531 124.679688 60.066406 L 83.273438 193.101562 C 83.292969 202.488281 82.480469 211.933594 82.171875 221.257812 C 81.574219 239.550781 81.761719 257.859375 81.703125 276.203125 C 81.664062 290.65625 80.453125 305.726562 83.453125 320.082031 C 84.75 326.316406 89.007812 330.277344 84.25 337.242188 C 80.78125 342.320312 70.097656 343.050781 65.300781 339.769531 C 55.675781 333.195312 63.082031 317.210938 65.121094 308.367188 C 75.234375 264.585938 71.257812 218.199219 70.886719 173.582031 C 70.578125 135.808594 72.027344 96.046875 69.378906 58.617188 C 68.96875 52.839844 68.859375 47.03125 68.257812 41.265625 C 65.929688 39.027344 62.761719 38.535156 60.171875 36.527344 C 49.007812 27.863281 68.757812 20.636719 72.714844 16.308594 C 76.292969 12.390625 78.042969 5.382812 79.691406 0.453125 L 81.371094 0.414062 L 105.980469 10.730469 C 108.03125 11.648438 107.46875 13.839844 108.109375 15.265625 C 112.617188 25.324219 124.09375 29.980469 133.738281 33.769531 L 314.898438 84.515625 C 317.320312 86.113281 316.867188 95.277344 317.1875 98.128906 C 318.226562 107.285156 319.597656 116.429688 320.488281 125.613281 C 321.515625 128.78125 328.375 126.445312 328.941406 130.492188 C 329.902344 137.328125 328.804688 147.292969 328.964844 154.589844 C 328.992188 155.808594 329.492188 156.929688 329.523438 158.148438 C 329.882812 173.542969 329.554688 189.015625 330.523438 204.347656 C 330.632812 206.15625 330.28125 208.316406 330.523438 210.003906 C 330.824219 212.09375 340.078125 212.054688 340.675781 210.824219 C 342.136719 207.785156 346.433594 201.859375 348.003906 198.230469 C 366.585938 155.128906 360.339844 84.953125 351.441406 35.15625 Z M 115.035156 57.855469 L 88.890625 61.214844 L 87.9375 62.316406 L 77.066406 182.535156 L 79.792969 177.320312 C 90.039062 139.257812 103.34375 102.003906 113.746094 64.015625 C 114.304688 61.996094 115.125 59.996094 115.035156 57.855469 Z M 305.785156 120.335938 C 307.542969 118.617188 305.664062 107.414062 302.6875 105.964844 L 227.523438 85.175781 L 225.285156 85.34375 C 224.421875 88.0625 223.953125 91.132812 224.363281 93.980469 C 224.773438 96.796875 229.121094 101.078125 230.902344 103.863281 C 251.191406 135.628906 268.664062 171.0625 289.59375 202.1875 C 291.292969 204.714844 293.359375 206.894531 296.417969 204.105469 C 298.847656 201.886719 297.660156 199.097656 297.667969 196.671875 C 297.789062 172.050781 297.570312 147.433594 297.757812 122.824219 Z M 247.414062 358.023438 C 247.992188 358.101562 248.410156 358.011719 248.941406 357.753906 C 251.582031 356.433594 258.746094 350.277344 261.265625 348.015625 C 276.046875 334.824219 289.332031 317.253906 298.808594 299.871094 C 300.378906 296.992188 308.632812 280.789062 308.375 278.859375 L 220.476562 117.898438 C 219.554688 118.527344 219.675781 119.207031 219.6875 120.175781 C 219.804688 127.082031 222.375 136.148438 222.773438 143.296875 Z M 197.894531 207.164062 C 201.523438 207.625 206.863281 207.164062 210.71875 207.164062 C 210.871094 207.164062 211.917969 206.644531 212.019531 206.304688 C 211.878906 197.558594 210.570312 188.914062 209.960938 180.226562 C 208.980469 166.355469 207.972656 152.53125 206.882812 138.65625 C 206.402344 132.632812 206.972656 126.355469 205.332031 120.457031 C 204.125 120.976562 203.945312 123.144531 203.804688 124.304688 C 201.382812 143.796875 200.433594 163.765625 198.65625 183.308594 C 197.964844 190.972656 196.945312 198.710938 196.085938 206.375 C 196.085938 206.535156 197.675781 207.136719 197.894531 207.164062 Z M 195.328125 224.617188 L 212.777344 224.617188 C 214.097656 224.617188 213.050781 221.917969 213.039062 221.269531 C 212.929688 217.660156 213.238281 213.960938 212.039062 210.464844 L 196.066406 210.472656 L 194.589844 223.378906 C 194.496094 223.828125 194.996094 224.515625 195.328125 224.617188 Z M 214.566406 242.566406 L 213.957031 231.125 C 213.457031 229.746094 212.488281 229.835938 211.269531 229.714844 C 209.402344 229.523438 195.21875 229.484375 194.527344 229.972656 C 192.957031 233.921875 193.609375 238.398438 193.019531 242.566406 Z M 216.058594 262.019531 C 216.578125 261.398438 215.457031 249.574219 214.609375 247.925781 C 213.777344 247.324219 196.308594 247.414062 194.277344 247.675781 C 193.457031 247.785156 192.667969 247.875 192.25 248.726562 C 191.28125 250.714844 192.289062 258.082031 190.960938 260.789062 C 190.949219 261.429688 191.308594 261.699219 191.78125 262.027344 C 193.058594 262.910156 215.269531 262.9375 216.058594 262.019531 Z M 189.429688 280.03125 L 216.878906 280.03125 C 217.136719 280.03125 217.726562 279.179688 217.667969 278.75 L 216.148438 267.425781 L 190.941406 267.425781 Z M 188.660156 300.039062 L 217.398438 300.039062 C 217.578125 300.039062 218.226562 299.511719 218.597656 299.441406 L 217.6875 285.378906 L 190.691406 285.128906 L 189.152344 285.648438 L 187.371094 298.230469 C 187.390625 298.8125 188.25 299.921875 188.660156 300.039062 Z M 185.84375 317.480469 L 219.445312 317.480469 C 221.144531 316.082031 219.777344 313.84375 219.707031 312.09375 C 219.636719 310.285156 220.335938 305.71875 218.675781 304.910156 C 209.492188 305.136719 198.675781 303.738281 189.660156 304.628906 C 188.492188 304.738281 187.382812 304.667969 186.972656 306.046875 C 186.640625 307.15625 185.433594 317.074219 185.84375 317.480469 Z M 185.074219 337.492188 L 220.476562 337.492188 C 222.496094 337.492188 221.253906 333.453125 221.246094 332.613281 C 221.183594 329.816406 222.292969 322.988281 218.964844 322.589844 L 185.800781 322.839844 C 185.324219 323.1875 185.023438 325.707031 184.882812 326.539062 C 184.484375 328.964844 183.882812 333.496094 183.914062 335.824219 C 183.921875 336.433594 184.644531 337.371094 185.074219 337.492188 Z M 222.195312 342.699219 L 184.664062 342.21875 C 182.855469 342.878906 181.964844 353.125 182.304688 354.105469 C 182.664062 355.132812 185.523438 355.375 186.59375 355.472656 C 197.644531 356.433594 210.179688 354.8125 221.386719 355.34375 L 223.203125 354.125 Z M 223.265625 360.101562 L 182.214844 360.300781 L 179.386719 385.238281 C 180.066406 386.160156 184.28125 385.390625 185.53125 385.167969 C 195.855469 383.359375 206.503906 379.664062 216.246094 375.855469 C 219.027344 374.773438 221.816406 372.777344 224.832031 372.894531 Z M 159.664062 388.296875 C 158.484375 388.597656 155.726562 387.617188 155.058594 388.796875 C 156.238281 388.496094 158.957031 389.476562 159.664062 388.296875 Z M 159.664062 388.296875 " clip-rule="nonzero"/></clipPath><clipPath id="47ce0ed494"><rect x="0" width="369" y="0" height="389"/></clipPath><clipPath id="04fd6412b3"><path d="M 226.34375 44.164062 L 812.65625 44.164062 L 812.65625 868.199219 L 226.34375 868.199219 Z M 226.34375 44.164062 " clip-rule="nonzero"/></clipPath><clipPath id="3839248dca"><path d="M 629.710938 710.777344 C 714.742188 654.613281 724.277344 544.207031 724.277344 544.207031 C 732.460938 499.578125 733.902344 453.53125 727.453125 408.582031 C 726.40625 401.226562 723.128906 390.5 722.878906 383.722656 C 722.847656 382.945312 722.515625 382.234375 723.636719 382.445312 C 758.140625 416.886719 784.757812 460.585938 799.160156 507.316406 C 820.980469 578.128906 814.074219 654.09375 786.636719 722.261719 C 769.34375 765.230469 719.699219 808.460938 679.835938 830.820312 C 562.585938 896.578125 383.039062 873.660156 291.113281 773.675781 C 218.039062 694.183594 214.632812 556.789062 244.796875 458.25 C 251.902344 435.007812 260.738281 418.945312 273.351562 398.496094 C 304.777344 347.542969 344.089844 296.707031 387.699219 255.644531 C 392.996094 250.648438 398.933594 246.191406 404.242188 241.191406 C 458.863281 189.765625 511.609375 135.171875 550.898438 70.765625 L 565.351562 44.167969 C 564.953125 47.054688 565.792969 49.882812 565.894531 52.652344 C 568.292969 115.0625 552.507812 192.457031 521.453125 246.871094 C 505.902344 274.117188 485.621094 293.90625 465.421875 317.355469 C 451.335938 333.707031 437.003906 350.011719 423.351562 366.703125 C 398.191406 397.4375 377.832031 433.46875 364.441406 470.992188 C 337.59375 546.195312 345.296875 643.21875 408.359375 698.261719 C 436.316406 722.671875 480.472656 743.019531 517.597656 746.019531 C 521.042969 746.300781 533.609375 745.871094 534.417969 745.820312 C 575.636719 743.421875 629.710938 710.777344 629.710938 710.777344 Z M 745.585938 427.371094 L 744.097656 428.234375 C 744.496094 430.972656 745.785156 433.820312 746.476562 436.570312 C 763.90625 506.414062 761.21875 590.535156 740.277344 659.371094 C 710.574219 757.054688 621.875 811.027344 525.300781 826.050781 C 524.703125 826.152344 518.984375 825.601562 520.425781 827.109375 C 523.84375 828.761719 527.109375 826.902344 530.019531 826.640625 C 627.921875 817.957031 740.039062 781.152344 766.097656 673.835938 C 780.648438 613.914062 781.179688 543.90625 766.097656 484.074219 C 761.179688 464.554688 754.132812 445.554688 745.585938 427.371094 Z M 745.585938 427.371094 " clip-rule="nonzero"/></clipPath><clipPath id="fbdc23dd54"><path d="M 0.34375 0.164062 L 586.65625 0.164062 L 586.65625 824.199219 L 0.34375 824.199219 Z M 0.34375 0.164062 " clip-rule="nonzero"/></clipPath><clipPath id="504d354768"><path d="M 403.710938 666.777344 C 488.742188 610.613281 498.277344 500.207031 498.277344 500.207031 C 506.460938 455.578125 507.902344 409.53125 501.453125 364.582031 C 500.40625 357.226562 497.128906 346.5 496.878906 339.722656 C 496.847656 338.945312 496.515625 338.234375 497.636719 338.445312 C 532.140625 372.886719 558.757812 416.585938 573.160156 463.316406 C 594.980469 534.128906 588.074219 610.09375 560.636719 678.261719 C 543.34375 721.230469 493.699219 764.460938 453.835938 786.820312 C 336.585938 852.578125 157.039062 829.660156 65.113281 729.675781 C -7.960938 650.183594 -11.367188 512.789062 18.796875 414.25 C 25.902344 391.007812 34.738281 374.945312 47.351562 354.496094 C 78.777344 303.542969 118.089844 252.707031 161.699219 211.644531 C 166.996094 206.648438 172.933594 202.191406 178.242188 197.191406 C 232.863281 145.765625 285.609375 91.171875 324.898438 26.765625 L 339.351562 0.167969 C 338.953125 3.054688 339.792969 5.882812 339.894531 8.652344 C 342.292969 71.0625 326.507812 148.457031 295.453125 202.871094 C 279.902344 230.117188 259.621094 249.90625 239.421875 273.355469 C 225.335938 289.707031 211.003906 306.011719 197.351562 322.703125 C 172.191406 353.4375 151.832031 389.46875 138.441406 426.992188 C 111.59375 502.195312 119.296875 599.21875 182.359375 654.261719 C 210.316406 678.671875 254.472656 699.019531 291.597656 702.019531 C 295.042969 702.300781 307.609375 701.871094 308.417969 701.820312 C 349.636719 699.421875 403.710938 666.777344 403.710938 666.777344 Z M 519.585938 383.371094 L 518.097656 384.234375 C 518.496094 386.972656 519.785156 389.820312 520.476562 392.570312 C 537.90625 462.414062 535.21875 546.535156 514.277344 615.371094 C 484.574219 713.054688 395.875 767.027344 299.300781 782.050781 C 298.703125 782.152344 292.984375 781.601562 294.425781 783.109375 C 297.84375 784.761719 301.109375 782.902344 304.019531 782.640625 C 401.921875 773.957031 514.039062 737.152344 540.097656 629.835938 C 554.648438 569.914062 555.179688 499.90625 540.097656 440.074219 C 535.179688 420.554688 528.132812 401.554688 519.585938 383.371094 Z M 519.585938 383.371094 " clip-rule="nonzero"/></clipPath><clipPath id="aae815598f"><rect x="0" width="587" y="0" height="825"/></clipPath><clipPath id="b3be5a1ea5"><path d="M 82.511719 194 L 957 194 L 957 1045.992188 L 82.511719 1045.992188 Z M 82.511719 194 " clip-rule="nonzero"/></clipPath><clipPath id="b7985053df"><path d="M 274.53125 788.898438 C 438.894531 967.753906 787.554688 910.539062 837.421875 652.203125 C 867.878906 494.449219 801.359375 377.378906 701.378906 264.230469 C 698.160156 260.582031 688.734375 254.667969 689.324219 248.800781 C 689.582031 246.160156 716.890625 211.515625 720.707031 208.046875 C 731.0625 198.644531 735.632812 200.453125 747.207031 207.089844 C 770.3125 220.332031 792.644531 243.769531 814.601562 259.332031 C 818.941406 264.429688 819.410156 274.746094 816.773438 280.644531 C 811.996094 291.339844 785.066406 323.941406 776.171875 334.65625 C 773.734375 337.605469 769.023438 336.558594 770.503906 343.734375 L 831.734375 431.519531 C 837.160156 434.320312 898.023438 411.699219 912.105469 411.71875 C 913.066406 411.71875 921.890625 414.070312 922.761719 414.597656 C 932.015625 420.105469 942.769531 457.457031 946.058594 469.074219 C 948.019531 476.007812 950.109375 483.117188 949.757812 490.453125 L 952.964844 488.824219 C 956.054688 509.492188 963.140625 518.089844 940.460938 527.253906 C 931.046875 531.054688 872.695312 544.207031 870.734375 547.265625 L 870.476562 652.863281 C 870.574219 654.234375 871.234375 655.242188 872.015625 656.3125 C 875.382812 660.980469 933.753906 676.441406 946.011719 684.167969 C 959.691406 692.796875 957.0625 701.410156 953.777344 715.195312 C 950.546875 728.6875 943.910156 746.980469 939.171875 760.421875 C 930.335938 785.492188 932.054688 798.753906 901.160156 792.078125 C 880.332031 787.578125 855.703125 775.214844 835.722656 767.398438 C 831.726562 767.710938 808.125 807.21875 803.269531 813.695312 C 798.761719 819.714844 793.703125 825.871094 788.875 831.648438 C 786.496094 834.496094 772.601562 847.410156 772.132812 848.832031 C 769.175781 857.824219 783.71875 871.28125 788.707031 878.664062 C 794.28125 886.910156 816.480469 917.128906 818.089844 923.804688 C 819.25 928.613281 816.683594 938.039062 813.183594 941.65625 C 791.574219 954.128906 768.304688 977.507812 746.867188 988.523438 C 737.359375 993.402344 733.570312 994.371094 724.445312 988.203125 C 717.261719 983.355469 704.144531 963.945312 698.449219 955.988281 C 693.972656 949.722656 677.320312 920.175781 672.203125 919.195312 C 640.308594 933.628906 606.023438 942.285156 572.160156 949.640625 C 571.328125 951.492188 570.429688 953.511719 570.300781 955.550781 C 569.132812 973.800781 572.640625 995.871094 571.359375 1015.140625 C 570.410156 1029.273438 569.871094 1043.035156 552.820312 1045.105469 C 533.027344 1047.496094 506.089844 1040.679688 485.25 1043.066406 C 471.816406 1040.007812 468.820312 1032.910156 467.828125 1020.066406 C 467.050781 1010.050781 470 948.324219 466.949219 946.242188 C 431.246094 939.488281 397.804688 926.453125 363.839844 914.25 C 354.59375 925.972656 322.640625 979.496094 311.066406 982.964844 C 304.96875 984.792969 294.902344 981.625 289.496094 978.488281 C 267.925781 965.992188 245.675781 944.324219 224.65625 930.140625 C 218.917969 922.675781 219.488281 914.6875 223.398438 906.492188 C 232.414062 887.601562 258.351562 864.542969 265.886719 847.109375 C 266.558594 845.5625 267.875 844.253906 267.464844 842.222656 C 245.175781 815.707031 223.027344 788.597656 208.113281 757.0625 C 205.484375 755.824219 203.066406 756.675781 200.457031 757.292969 C 180.066406 762.160156 151.511719 777.246094 132.230469 779.742188 C 122.914062 780.941406 115.289062 779.972656 109.800781 771.726562 C 104.605469 763.910156 85.714844 706.46875 83.773438 695.882812 C 81.457031 683.191406 82.066406 672.496094 95.058594 666.585938 C 111.011719 659.339844 139.835938 651.175781 157.339844 646.386719 C 160.527344 645.519531 163.695312 645.917969 166.882812 645.449219 C 167.875 643.320312 168.804688 640.800781 168.765625 638.421875 C 168.375 617.351562 164.777344 596.582031 165.445312 575.273438 C 165.773438 564.875 168.542969 551.664062 168.765625 541.347656 C 168.804688 539.140625 168.023438 535.191406 166.054688 533.972656 C 144.636719 525.425781 117.328125 521.058594 96.75 511.511719 C 83.625 505.414062 80.644531 497.328125 83.523438 483.644531 C 86.601562 469.0625 102.464844 417.539062 109.800781 406.441406 C 114.75 398.964844 118.339844 401.886719 120.308594 400.585938 C 121.394531 399.867188 121.347656 397.007812 122.976562 396.566406 C 132.742188 393.9375 188.234375 418.878906 202.296875 420.585938 C 210.582031 421.597656 211.144531 412.320312 214.960938 406.492188 C 228.605469 385.671875 243.167969 364.433594 258.582031 344.960938 C 261.238281 341.613281 266.796875 340.015625 267.425781 334.269531 L 225.035156 274.886719 C 218.417969 265.160156 218.378906 252.667969 227.734375 244.640625 C 241.847656 232.527344 265.988281 214.996094 281.71875 204.839844 C 300.710938 192.574219 307.128906 187.777344 323.929688 206.71875 C 327.667969 210.9375 350.175781 242.3125 349.605469 245.242188 C 296.53125 301.253906 245.195312 361.835938 217.660156 435.070312 C 174.589844 549.644531 190.0625 696.984375 274.53125 788.898438 Z M 274.53125 788.898438 " clip-rule="nonzero"/></clipPath><clipPath id="832a42e3ab"><path d="M 0.511719 0 L 875 0 L 875 851.992188 L 0.511719 851.992188 Z M 0.511719 0 " clip-rule="nonzero"/></clipPath><clipPath id="bf4f6c1f66"><path d="M 192.53125 594.898438 C 356.894531 773.753906 705.554688 716.539062 755.421875 458.203125 C 785.878906 300.449219 719.359375 183.378906 619.378906 70.230469 C 616.160156 66.582031 606.734375 60.667969 607.324219 54.800781 C 607.582031 52.160156 634.890625 17.515625 638.707031 14.046875 C 649.0625 4.644531 653.632812 6.453125 665.207031 13.089844 C 688.3125 26.332031 710.644531 49.769531 732.601562 65.332031 C 736.941406 70.429688 737.410156 80.746094 734.773438 86.644531 C 729.996094 97.339844 703.066406 129.941406 694.171875 140.65625 C 691.734375 143.605469 687.023438 142.558594 688.503906 149.734375 L 749.734375 237.519531 C 755.160156 240.320312 816.023438 217.699219 830.105469 217.71875 C 831.066406 217.71875 839.890625 220.070312 840.761719 220.597656 C 850.015625 226.105469 860.769531 263.457031 864.058594 275.074219 C 866.019531 282.007812 868.109375 289.117188 867.757812 296.453125 L 870.964844 294.824219 C 874.054688 315.492188 881.140625 324.089844 858.460938 333.253906 C 849.046875 337.054688 790.695312 350.207031 788.734375 353.265625 L 788.476562 458.863281 C 788.574219 460.234375 789.234375 461.242188 790.015625 462.3125 C 793.382812 466.980469 851.753906 482.441406 864.011719 490.167969 C 877.691406 498.796875 875.0625 507.410156 871.777344 521.195312 C 868.546875 534.6875 861.910156 552.980469 857.171875 566.421875 C 848.335938 591.492188 850.054688 604.753906 819.160156 598.078125 C 798.332031 593.578125 773.703125 581.214844 753.722656 573.398438 C 749.726562 573.710938 726.125 613.21875 721.269531 619.695312 C 716.761719 625.714844 711.703125 631.871094 706.875 637.648438 C 704.496094 640.496094 690.601562 653.410156 690.132812 654.832031 C 687.175781 663.824219 701.71875 677.28125 706.707031 684.664062 C 712.28125 692.910156 734.480469 723.128906 736.089844 729.804688 C 737.25 734.613281 734.683594 744.039062 731.183594 747.65625 C 709.574219 760.128906 686.304688 783.507812 664.867188 794.523438 C 655.359375 799.402344 651.570312 800.371094 642.445312 794.203125 C 635.261719 789.355469 622.144531 769.945312 616.449219 761.988281 C 611.972656 755.722656 595.320312 726.175781 590.203125 725.195312 C 558.308594 739.628906 524.023438 748.285156 490.160156 755.640625 C 489.328125 757.492188 488.429688 759.511719 488.300781 761.550781 C 487.132812 779.800781 490.640625 801.871094 489.359375 821.140625 C 488.410156 835.273438 487.871094 849.035156 470.820312 851.105469 C 451.027344 853.496094 424.089844 846.679688 403.25 849.066406 C 389.816406 846.007812 386.820312 838.910156 385.828125 826.066406 C 385.050781 816.050781 388 754.324219 384.949219 752.242188 C 349.246094 745.488281 315.804688 732.453125 281.839844 720.25 C 272.59375 731.972656 240.640625 785.496094 229.066406 788.964844 C 222.96875 790.792969 212.902344 787.625 207.496094 784.488281 C 185.925781 771.992188 163.675781 750.324219 142.65625 736.140625 C 136.917969 728.675781 137.488281 720.6875 141.398438 712.492188 C 150.414062 693.601562 176.351562 670.542969 183.886719 653.109375 C 184.558594 651.5625 185.875 650.253906 185.464844 648.222656 C 163.175781 621.707031 141.027344 594.597656 126.113281 563.0625 C 123.484375 561.824219 121.066406 562.675781 118.457031 563.292969 C 98.066406 568.160156 69.511719 583.246094 50.230469 585.742188 C 40.914062 586.941406 33.289062 585.972656 27.800781 577.726562 C 22.605469 569.910156 3.714844 512.46875 1.773438 501.882812 C -0.542969 489.191406 0.0664062 478.496094 13.058594 472.585938 C 29.011719 465.339844 57.835938 457.175781 75.339844 452.386719 C 78.527344 451.519531 81.695312 451.917969 84.882812 451.449219 C 85.875 449.320312 86.804688 446.800781 86.765625 444.421875 C 86.375 423.351562 82.777344 402.582031 83.445312 381.273438 C 83.773438 370.875 86.542969 357.664062 86.765625 347.347656 C 86.804688 345.140625 86.023438 341.191406 84.054688 339.972656 C 62.636719 331.425781 35.328125 327.058594 14.75 317.511719 C 1.625 311.414062 -1.355469 303.328125 1.523438 289.644531 C 4.601562 275.0625 20.464844 223.539062 27.800781 212.441406 C 32.75 204.964844 36.339844 207.886719 38.308594 206.585938 C 39.394531 205.867188 39.347656 203.007812 40.976562 202.566406 C 50.742188 199.9375 106.234375 224.878906 120.296875 226.585938 C 128.582031 227.597656 129.144531 218.320312 132.960938 212.492188 C 146.605469 191.671875 161.167969 170.433594 176.582031 150.960938 C 179.238281 147.613281 184.796875 146.015625 185.425781 140.269531 L 143.035156 80.886719 C 136.417969 71.160156 136.378906 58.667969 145.734375 50.640625 C 159.847656 38.527344 183.988281 20.996094 199.71875 10.839844 C 218.710938 -1.425781 225.128906 -6.222656 241.929688 12.71875 C 245.667969 16.9375 268.175781 48.3125 267.605469 51.242188 C 214.53125 107.253906 163.195312 167.835938 135.660156 241.070312 C 92.589844 355.644531 108.0625 502.984375 192.53125 594.898438 Z M 192.53125 594.898438 " clip-rule="nonzero"/></clipPath><clipPath id="98453c9056"><rect x="0" width="875" y="0" height="852"/></clipPath><clipPath id="547c83c9dc"><path d="M 542 44.164062 L 660 44.164062 L 660 322.835938 L 542 322.835938 Z M 542 44.164062 " clip-rule="nonzero"/></clipPath><clipPath id="63bf496291"><path d="M 584.324219 44.167969 C 588.980469 48.625 593.179688 54.542969 596.949219 59.820312 C 639.066406 118.851562 697.949219 249.570312 626.214844 305.171875 C 600.886719 324.800781 539.394531 335.738281 542.214844 289.070312 C 543.421875 268.949219 561.585938 238.875 569.199219 219.054688 C 587.972656 170.207031 589.429688 140.449219 587.472656 88.695312 C 586.914062 73.851562 588.863281 58.121094 584.324219 44.167969 Z M 584.324219 44.167969 " clip-rule="nonzero"/></clipPath><clipPath id="d312c61136"><path d="M 0 0.164062 L 118 0.164062 L 118 278.835938 L 0 278.835938 Z M 0 0.164062 " clip-rule="nonzero"/></clipPath><clipPath id="c123be4f42"><path d="M 42.324219 0.167969 C 46.980469 4.625 51.179688 10.542969 54.949219 15.820312 C 97.066406 74.851562 155.949219 205.570312 84.214844 261.171875 C 58.886719 280.800781 -2.605469 291.738281 0.214844 245.070312 C 1.421875 224.949219 19.585938 194.875 27.199219 175.054688 C 45.972656 126.207031 47.429688 96.449219 45.472656 44.695312 C 44.914062 29.851562 46.863281 14.121094 42.324219 0.167969 Z M 42.324219 0.167969 " clip-rule="nonzero"/></clipPath><clipPath id="49ec57faf8"><rect x="0" width="118" y="0" height="279"/></clipPath></defs><g clip-path="url(#a744610a7e)"><g clip-path="url(#4ed294506c)"><g transform="matrix(1, 0, 0, 1, 381, 361)"><g clip-path="url(#47ce0ed494)"><g clip-path="url(#bd163ca0df)"><g clip-path="url(#daeeb728f4)"><rect x="-609.69" width="1496.88" fill="#070707" height="1612.439952" y="-607.344993" fill-opacity="1"/></g></g></g></g></g></g><g clip-path="url(#04fd6412b3)"><g clip-path="url(#3839248dca)"><g transform="matrix(1, 0, 0, 1, 226, 44)"><g clip-path="url(#aae815598f)"><g clip-path="url(#fbdc23dd54)"><g clip-path="url(#504d354768)"><rect x="-454.69" width="1496.88" fill="#f18a1c" height="1612.439952" y="-290.344993" fill-opacity="1"/></g></g></g></g></g></g><g clip-path="url(#b3be5a1ea5)"><g clip-path="url(#b7985053df)"><g transform="matrix(1, 0, 0, 1, 82, 194)"><g clip-path="url(#98453c9056)"><g clip-path="url(#832a42e3ab)"><g clip-path="url(#bf4f6c1f66)"><rect x="-310.69" width="1496.88" fill="#767676" height="1612.439952" y="-440.344993" fill-opacity="1"/></g></g></g></g></g></g><g clip-path="url(#547c83c9dc)"><g clip-path="url(#63bf496291)"><g transform="matrix(1, 0, 0, 1, 542, 44)"><g clip-path="url(#49ec57faf8)"><g clip-path="url(#d312c61136)"><g clip-path="url(#c123be4f42)"><rect x="-770.69" width="1496.88" fill="#3432b2" height="1612.439952" y="-290.344993" fill-opacity="1"/></g></g></g></g></g></g></svg>